<svg width="650" height="650" viewBox="0 0 650 650" fill="none" xmlns="http://www.w3.org/2000/svg">
<path fill-rule="evenodd" clip-rule="evenodd" d="M40.0767 162.804C38.9261 162.664 37.7916 162.673 36.6956 162.816H25.3028C11.3284 162.816 0 173.389 0 186.431V292.679C0 305.721 11.3284 316.294 25.3028 316.294H38.1493C39.9003 316.294 41.5669 315.957 43.0787 315.348L289.071 253.832C292.261 253.034 295.255 255.611 294.66 258.643L225.59 610.606C225.152 611.793 224.913 613.067 224.913 614.394V626.385C224.913 639.427 236.242 650 250.216 650H366.047C380.021 650 391.349 639.427 391.349 626.385V614.543C391.349 613.097 391.07 611.713 390.56 610.433L356.934 259.343C356.656 256.437 359.56 254.159 362.579 254.914L606.911 316.015C608.426 316.627 610.097 316.966 611.852 316.966H624.697C638.672 316.966 650 306.393 650 293.351V185.246C650 172.204 638.672 161.632 624.697 161.632H611.882C610.541 161.632 609.249 161.829 608.038 162.194L388.439 188.996C388.281 189.015 388.176 189.005 387.98 188.912C387.721 188.789 387.286 188.489 386.863 187.91C385.916 186.616 385.911 185.284 386.237 184.551C397.738 158.672 404.844 126.544 404.844 99.7077C404.844 72.7959 397.354 48.229 383.221 30.0643C368.915 11.6767 347.807 0 322.189 0C296.571 0 275.462 11.6767 261.156 30.0643C247.024 48.229 239.533 72.7959 239.533 99.7077C239.533 126.544 246.639 158.671 258.14 184.551C258.477 185.31 258.469 186.682 257.498 188.01C257.064 188.605 256.615 188.917 256.341 189.048C256.132 189.147 256.013 189.158 255.844 189.138L40.0767 162.804ZM291.263 99.7077C291.263 58.9979 311.671 48.2795 322.189 48.2795C332.706 48.2795 353.114 58.9979 353.114 99.7077C353.114 119.824 347.507 145.684 338.454 166.054C333.924 176.248 329.118 183.721 324.878 188.216C323.78 189.381 322.878 190.182 322.189 190.725C321.499 190.182 320.597 189.381 319.499 188.216C315.259 183.721 310.453 176.248 305.923 166.054C296.87 145.684 291.263 119.824 291.263 99.7077ZM599.394 215.664V259.768C599.394 262.529 596.589 264.538 593.732 263.823L475.212 234.184C473.653 233.795 472.964 233.145 472.583 232.605C472.118 231.947 471.808 230.979 471.888 229.853C471.967 228.727 472.411 227.805 472.964 227.21C473.418 226.721 474.193 226.162 475.793 225.966L594.313 211.501C597.006 211.173 599.394 213.129 599.394 215.664ZM334.229 602.77H283.486C280.677 602.77 278.556 600.394 279.062 597.815L313.162 424.047C313.484 422.405 314.184 421.726 314.718 421.366C315.404 420.901 316.486 420.553 317.794 420.609C319.102 420.665 320.145 421.105 320.783 421.626C321.278 422.031 321.908 422.767 322.067 424.429L338.71 598.198C338.945 600.654 336.872 602.77 334.229 602.77ZM55.6871 212.341L170.151 226.311C171.751 226.507 172.526 227.066 172.98 227.555C173.533 228.15 173.977 229.072 174.056 230.198C174.136 231.324 173.825 232.292 173.361 232.95C172.98 233.49 172.291 234.139 170.732 234.529L56.268 263.154C53.4111 263.868 50.6055 261.859 50.6055 259.099V216.504C50.6055 213.969 52.994 212.013 55.6871 212.341Z" fill="#CD2B2B"/>
</svg>
