<svg width="1330" height="1330" viewBox="0 0 1330 1330" fill="none" xmlns="http://www.w3.org/2000/svg">
<g clip-path="url(#clip0_318_6)">
<path d="M1329.96 320H0V980.957H1329.96V320Z" fill="#800000"/>
<path d="M270.569 711.642L292.033 720.748C260.38 782.32 214.634 813.106 154.797 813.106C113.604 813.106 79.1328 798.58 51.3821 769.528C24.0651 740.043 10.4065 702.103 10.4065 655.707C10.4065 606.71 23.8483 566.818 50.7317 536.032C77.6152 505.246 111.653 489.853 152.846 489.853C194.472 489.853 227.642 504.596 252.358 534.081C277.507 563.133 290.081 603.458 290.081 655.057H71.5448C71.5448 671.967 72.6288 686.927 74.7968 699.935C76.9648 712.943 80.6505 724.217 85.8537 733.756C103.632 767.144 131.165 783.837 168.455 783.837C210.949 783.837 244.987 759.772 270.569 711.642ZM71.5448 630.341H203.577C220.054 630.341 228.293 619.501 228.293 597.821C228.293 573.539 220.922 552.943 206.179 536.032C191.87 518.688 174.309 510.016 153.496 510.016C129.214 510.016 109.485 520.639 94.309 541.886C79.1328 563.133 71.5448 592.618 71.5448 630.341ZM551.844 804L544.039 742.211C518.456 786.873 485.502 809.203 445.177 809.203C409.621 809.203 379.919 794.461 356.071 764.976C332.223 735.057 320.299 696.683 320.299 649.854C320.299 603.458 333.09 565.517 358.673 536.032C384.255 506.114 415.041 491.154 451.031 491.154C490.489 491.154 521.491 510.45 544.039 549.04V377.333C544.039 357.387 529.296 347.414 499.811 347.414H478.998V323.349L598.022 316.845V733.756C598.022 764.108 610.163 779.285 634.445 779.285H655.909V804H551.844ZM459.486 516.52C408.32 516.52 382.738 557.929 382.738 640.748C382.738 733.106 408.104 779.285 458.835 779.285C483.984 779.285 504.364 767.144 519.974 742.862C536.017 718.58 544.039 684.759 544.039 641.398C544.039 604.108 536.017 573.973 519.974 550.992C503.93 528.011 483.768 516.52 459.486 516.52ZM672.519 498.959L780.487 493.756V695.382C780.487 719.664 786.557 738.959 798.698 753.268C811.273 767.144 827.533 774.081 847.479 774.081C871.327 774.081 891.707 764.108 908.617 744.163C925.961 723.783 934.633 699.068 934.633 670.016V555.545C934.633 542.536 930.297 533.864 921.625 529.528C912.953 524.759 899.511 522.374 881.3 522.374V498.959L988.617 493.756V744.163C988.617 767.577 1000.76 779.285 1025.04 779.285H1044.55V801.398L941.788 804L935.284 744.163C917.072 765.409 898.644 781.669 879.999 792.943C861.788 803.783 843.143 809.203 824.064 809.203C792.845 809.203 768.78 799.014 751.869 778.634C734.959 757.821 726.503 727.686 726.503 688.228V555.545C726.503 542.97 721.734 534.298 712.194 529.528C703.089 524.759 689.864 522.374 672.519 522.374V498.959Z" fill="white"/>
</g>
<defs>
<clipPath id="clip0_318_6">
<rect width="1329.96" height="660.957" fill="white" transform="translate(0 290)"/>
</clipPath>
</defs>
</svg>
